<?xml version="1.0" encoding="UTF-8" standalone="no"?>
<svg
   viewBox="0 0 32 32"
   width="16"
   height="16"
   class="sc-blHHSb fTSiDe"
   version="1.1"
   id="svg1"
   xmlns="http://www.w3.org/2000/svg"
   xmlns:svg="http://www.w3.org/2000/svg">
  <defs
     id="defs1" />
  <rect
     width="31"
     height="23"
     x="0.5"
     y="4.5"
     fill="#EAFBE7"
     stroke="#C6F0C2"
     rx="2.5"
     id="rect1"
     style="stroke:#872525;stroke-opacity:1;fill:#fbe7e7;fill-opacity:1" />
  <path
     fill="#328048"
     d="m 9.679,7.18 a 0.75,0.75 0 0 0 -1.358,0 l -4,8.5 a 0.75017481,0.75017481 0 0 0 1.357,0.64 l 0.974,-2.07 h 4.695 l 0.974,2.07 a 0.75062707,0.75062707 0 1 0 1.358,-0.64 z m -2.32,5.57 1.64,-3.489 1.643,3.489 z m 9.14,-3 c -0.865,0 -1.547,0.241 -2.027,0.717 a 0.74918372,0.74918372 0 1 0 1.056,1.063 c 0.188,-0.187 0.516,-0.283 0.972,-0.283 0.584,0 1.074,0.323 1.21,0.757 A 3,3 0 0 0 16.5,11.75 c -1.516,0 -2.75,1.121 -2.75,2.5 0,1.379 1.234,2.5 2.75,2.5 0.479,0.001 0.95,-0.114 1.375,-0.336 A 0.75,0.75 0 0 0 19.25,16 v -3.75 c 0,-1.379 -1.234,-2.5 -2.75,-2.5 m 0,5.5 c -0.687,0 -1.25,-0.449 -1.25,-1 0,-0.551 0.563,-1 1.25,-1 0.687,0 1.25,0.449 1.25,1 0,0.551 -0.562,1 -1.25,1"
     id="path1"
     style="fill:#7a3030;fill-opacity:1" />
  <g
     id="g4"
     transform="translate(1.284895,-1.89675)">
    <circle
       style="fill:#efe7fb;fill-opacity:0.55928165;stroke:#020101;stroke-width:0.6;stroke-dasharray:none;stroke-opacity:1"
       id="path2"
       cx="15.211666"
       cy="16.579973"
       r="5.4315362" />
    <path
       style="fill:none;fill-opacity:1;stroke:#020101;stroke-width:1.62253;stroke-linecap:round;stroke-dasharray:none;stroke-opacity:1"
       d="m 19.426951,20.761083 4.939235,4.939235"
       id="path3" />
    <path
       style="fill:none;fill-opacity:1;stroke:#020101;stroke-width:2.84023;stroke-linecap:round;stroke-dasharray:none;stroke-opacity:1"
       d="m 21.13252,22.4427 3.172548,3.172548"
       id="path4" />
  </g>
</svg>
